<?xml version="1.0" encoding="utf-8"?>
<svg version="1.1" id="svg-kemana-light" xmlns="http://www.w3.org/2000/svg" xmlns:xlink="http://www.w3.org/1999/xlink" x="0px" y="0px"
	 viewBox="0 0 600 600" enable-background="new 0 0 600 600" xml:space="preserve">
<path id="svg-kemana-k" fill="#FFFFFF" d="M446.9,245.6c-3.3,4.3-5.1,7.7-7.8,9.9c-33.7,28.7-67.5,57.3-101.6,85.6c-6.9,5.7-8.4,10.6-4.9,19.1
	c19,46.3,37.5,92.9,56.2,139.3c1.1,2.6,2.1,5.3,3.3,8.3c-27,0-53.2,0-80.9,0c-2.4-7.1-5-14.9-7.7-22.7c-10.9-32.4-21.7-64.9-33-97.2
	c-1.6-4.4-6-7.9-9.1-11.8c-2.8,4.3-7.1,8.3-8.1,13c-7.4,35.1-14.2,70.3-21.2,105.5c-0.8,4.1-1.6,8.1-2.5,12.8c-26.1,0-51.8,0-76.6,0
	c30.2-138.2,60.5-276.5,90.8-415.4c23.2,0,48.8,0,75.6,0c-7.5,31.8-15.3,63.2-22.3,94.8c-11.5,51.7-22.5,103.5-33.4,155.3
	c-0.8,3.7,0.4,7.8,0.6,11.7c4.1-1.2,9.2-1.1,12.1-3.7c36.5-32.5,72.9-65.1,108.8-98.2c5.6-5.1,9.7-8,18.1-6.9
	C416.5,246.8,430,245.6,446.9,245.6z"/>
<path id="svg-kemana-box" fill="#FFFFFF" d="M0,0v600h600V0H0z M571,571H29V29h542V571z"/>
</svg>
