<?xml version="1.0" encoding="utf-8"?>
<!-- Generator: Adobe Illustrator 18.0.0, SVG Export Plug-In . SVG Version: 6.00 Build 0)  -->
<!DOCTYPE svg PUBLIC "-//W3C//DTD SVG 1.1//EN" "http://www.w3.org/Graphics/SVG/1.1/DTD/svg11.dtd">
<svg version="1.1" id="Layer_1" xmlns="http://www.w3.org/2000/svg" xmlns:xlink="http://www.w3.org/1999/xlink" x="0px" y="0px"
	 viewBox="0 0 331 124" enable-background="new 0 0 331 124" xml:space="preserve">
<g>
	<g>
		<path fill="#184E92" d="M325,6v112.1H6V6H325 M331.1,0L331.1,0L331.1,0L331.1,0z M331,0h-3.5H3.7H0v3.7v116.7v3.7h3.6h323.8h3.6
			v-3.7V3.8L331,0L331,0z"/>
	</g>
</g>
<path fill="#184E92" d="M79,51.5c-1.2,1-2.7,2.1-4.3,3.5c-0.3,0.3-0.8,0.8-1.6,1.5c-0.8,0.7-1.6,1.4-2.4,2.1
	c-0.8,0.7-1.6,1.4-2.4,2.1c-0.7,0.7-1.2,1.1-1.5,1.4c0.7,1.8,1.4,3.8,2.3,5.9c0.8,2.2,1.6,4.3,2.4,6.2c0.8,2,1.5,3.8,2.2,5.3
	s1.1,2.6,1.4,3.2V83c-0.6-0.1-1.4-0.1-2.1-0.1c-0.7,0-1.7,0-2.8,0c-1.2,0-2.3,0-3.2,0c-0.9,0-1.8,0-2.6,0.1c-0.4-1.3-0.7-2.3-1-3.2
	c-0.3-0.9-0.6-1.8-0.9-2.8c-0.3-1-0.7-2.2-1.2-3.6s-1.2-3.3-2-5.8c-0.3-0.9-0.5-1.4-0.6-1.6c-0.1-0.2-0.3-0.3-0.6-0.3
	s-0.6,0.2-0.7,0.5c-0.1,0.3-0.3,1-0.6,2c-0.7,3-1.2,5.7-1.7,8.1c-0.4,2.4-0.8,4.7-1.2,6.8c-0.8-0.2-1.5-0.2-2.3-0.2s-1.7,0-2.8,0
	c-1,0-1.9,0-2.9,0c-0.9,0-1.8,0-2.7,0.1c1.7-6.7,3.3-13.4,4.9-20.2c1.5-6.7,3-13.6,4.4-20.6c0.5-2.4,1-4.8,1.5-7.4
	c0.5-2.5,0.9-4.8,1.1-6.9c0.8,0.1,1.7,0.2,2.6,0.3c0.9,0.1,1.9,0.1,3,0.1c1,0,1.9,0,2.7-0.1c0.8-0.1,1.6-0.2,2.4-0.3
	c-1.2,4.7-2.2,9.1-3.2,13.2s-1.8,7.7-2.4,10.8c-0.7,3.1-1.4,6.5-2.1,10.1c0,0.4,0.2,0.7,0.6,0.7c0.3,0,0.8-0.3,1.4-0.8
	c0.7-0.5,1.4-1.1,2.2-1.8c2.2-2,4.4-3.9,6.6-5.8c2.2-1.9,4.3-4,6.2-6.2c0.5,0.1,1.1,0.2,1.7,0.3c0.6,0.1,1.2,0.1,2,0.1
	c0.7,0,1.3,0,1.8-0.1c0.5-0.1,1-0.2,1.5-0.3l0.1,1.2C81.3,49.8,80.3,50.6,79,51.5z"/>
<path fill="#184E92" d="M110.3,77.8c-0.2,0.7-0.6,1.7-1,3c-1.6,1.1-3.3,1.8-5.2,2.2c-1.9,0.3-3.8,0.5-5.8,0.5
	c-2.8,0-5.3-0.4-7.4-1.3s-3.8-2-5.1-3.5c-1.3-1.5-2.3-3.2-3-5.2c-0.7-2-1-4-1-6.2c0-2.4,0.4-4.8,1.2-7.1c0.8-2.4,2-4.5,3.6-6.4
	s3.6-3.4,6-4.6c2.4-1.2,5.2-1.8,8.3-1.8c4.5,0,8,1.2,10.3,3.6c2.3,2.4,3.5,5.6,3.5,9.5c0,0.9-0.1,1.9-0.2,2.8
	c-0.1,1-0.3,1.9-0.4,2.8c-3.1-0.1-5.6-0.2-7.7-0.2s-3.9-0.1-5.5-0.1h-3.4c-0.6,0-1.4,0-2.3,0c-0.8,0-1.8,0-2.9,0.1
	c-0.1,0.6-0.2,1.2-0.2,1.9c0,0.7-0.1,1.4-0.1,2.1c0,2.9,0.7,5.3,2.1,7c1.4,1.8,3.6,2.6,6.6,2.6c1.4,0,2.9-0.3,4.6-0.9
	c1.7-0.6,3.2-1.6,4.6-3.1L111,76C110.8,76.5,110.6,77.2,110.3,77.8z M104.8,52.3c-0.6-1.2-1.9-1.8-3.7-1.8c-1.2,0-2.3,0.3-3.2,1
	c-0.9,0.7-1.7,1.6-2.3,2.7c-0.7,1.1-1.2,2.4-1.7,3.8c-0.4,1.4-0.8,2.9-1.2,4.3c0.4,0.1,0.8,0.1,1.2,0.1c0.4,0,0.8,0,1.2,0h2.7h3
	c0.5,0,1.2,0,1.8,0c0.7,0,1.4-0.1,2.2-0.1c0.1-0.6,0.3-1.5,0.5-2.6c0.2-1.1,0.3-2.2,0.3-3.5C105.8,54.8,105.5,53.5,104.8,52.3z"/>
<path fill="#184E92" d="M125.8,48.5c0.7,0.1,1.6,0.1,2.7,0.1c1.1,0,2,0,2.7-0.1c0.7-0.1,1.5-0.2,2.2-0.3c-0.3,0.9-0.5,1.8-0.7,2.7
	c-0.2,0.9-0.4,1.8-0.6,2.7c0.4-0.5,1-1.2,1.7-1.9c0.7-0.7,1.5-1.4,2.5-2s2.1-1.2,3.4-1.6c1.3-0.5,2.8-0.7,4.5-0.7
	c2.3,0,4.2,0.6,5.7,1.7s2.5,2.8,2.9,5.1c1.6-1.9,3.5-3.6,5.6-4.9c2.1-1.3,4.5-2,6.9-2c1,0,2.1,0.2,3.2,0.5c1.1,0.3,2.1,0.8,3,1.5
	c0.9,0.7,1.6,1.5,2.2,2.6c0.6,1.1,0.8,2.3,0.8,3.8c0,0.6,0,1.2-0.1,1.8c-0.1,0.6-0.1,1.3-0.3,2c-0.2,0.7-0.3,1.7-0.6,2.8
	c-0.3,1.1-0.6,2.5-1,4.1c-0.1,0.3-0.3,1.2-0.6,2.6c-0.3,1.4-0.6,2.9-1,4.6c-0.4,1.7-0.7,3.5-1.1,5.3c-0.3,1.8-0.6,3.2-0.8,4.3
	c-0.8-0.1-1.7-0.1-2.5-0.1c-0.9,0-1.8,0-2.7,0c-1.3,0-2.3,0-3.1,0c-0.8,0-1.6,0-2.4,0.1c0.7-2.1,1.4-4.6,2.2-7.3
	c0.8-2.7,1.4-5.3,2.1-7.8c0.6-2.5,1.1-4.8,1.5-6.8c0.4-2,0.6-3.4,0.6-4.2c0-1.1-0.3-2.1-1-2.9c-0.7-0.8-1.7-1.2-3.1-1.2
	c-0.5,0-1.1,0.1-1.8,0.3c-0.7,0.2-1.5,0.6-2.3,1.3c-0.8,0.7-1.6,1.6-2.4,2.9c-0.8,1.2-1.5,2.9-2.2,5.1c-0.5,1.7-1.2,4.3-2,8
	s-1.6,7.9-2.4,12.7c-0.8-0.1-1.6-0.1-2.6-0.1s-2,0-3.1,0c-0.9,0-1.7,0-2.4,0c-0.7,0-1.5,0-2.3,0.1c0.6-1.9,1.2-4.2,2-6.9
	c0.7-2.7,1.4-5.4,2.1-8c0.6-2.6,1.2-4.9,1.6-7s0.6-3.5,0.6-4.3c0-1.3-0.3-2.2-1.1-2.8c-0.7-0.6-1.7-0.9-2.9-0.9
	c-2,0-3.8,0.8-5.3,2.4c-1.5,1.6-2.7,3.8-3.6,6.8c-0.1,0.4-0.4,1.2-0.7,2.3c-0.3,1.1-0.6,2.6-1.1,4.4c-0.4,1.8-0.9,3.9-1.4,6.3
	c-0.5,2.4-1,5-1.4,7.8c-0.8-0.1-1.7-0.1-2.6-0.1s-1.8,0-2.6,0c-0.9,0-1.8,0-2.7,0c-0.9,0-1.7,0-2.4,0.1c0.6-2.2,1.2-4.3,1.6-6.1
	c0.5-1.8,0.9-3.7,1.3-5.6c0.4-1.9,0.9-4.1,1.4-6.4c0.5-2.4,1.1-5.3,1.9-8.7c0.2-1.3,0.4-2.3,0.6-3.1c0.1-0.8,0.3-1.5,0.4-2
	c0.1-0.6,0.2-1.1,0.3-1.5c0.1-0.4,0.2-0.9,0.3-1.4C124.4,48.3,125.1,48.4,125.8,48.5z"/>
<path fill="#184E92" d="M207.9,83.2c-0.9,0.3-2.1,0.5-3.6,0.5c-1.3,0-2.4-0.2-3.3-0.6c-0.8-0.4-1.5-0.8-2-1.4s-0.8-1.1-1.1-1.8
	c-0.2-0.6-0.4-1.1-0.5-1.5c-1.2,2-2.5,3.5-4,4.3s-3.5,1.2-5.9,1.2c-2.9,0-5.2-0.8-7-2.5c-1.7-1.7-2.6-3.9-2.6-6.9
	c0-2.3,0.7-4.5,2-6.5c1.3-2,3.3-3.4,5.8-4.2c1.1-0.3,2.5-0.6,4.2-0.9c1.6-0.2,3.2-0.5,4.7-0.7c1.1-0.1,2-0.3,2.7-0.4
	c0.7-0.1,1.3-0.3,1.7-0.6c0.4-0.3,0.7-0.7,0.9-1.3c0.2-0.6,0.3-1.4,0.3-2.4c0-1.1-0.2-2-0.6-2.7c-0.4-0.7-0.9-1.3-1.5-1.7
	c-0.6-0.4-1.3-0.7-2-0.9c-0.8-0.2-1.5-0.3-2.2-0.3c-1.5,0-2.9,0.2-4.1,0.7c-1.2,0.5-2.4,1.2-3.6,2h-0.4c0.1-1,0.2-1.7,0.2-2.2
	s0.1-1.2,0.1-1.9c4-2.2,8.2-3.4,12.8-3.4c1.4,0,2.8,0.1,4.1,0.4c1.3,0.3,2.5,0.8,3.6,1.5c1.1,0.7,1.9,1.6,2.6,2.7
	c0.7,1.1,1,2.6,1,4.3c0,1.1-0.1,2.2-0.3,3.5c-0.2,1.3-0.4,2.3-0.6,3.1l-2,9.1c-0.4,1.7-0.6,3-0.7,3.8c-0.1,0.8-0.1,1.5-0.1,1.9
	c0,0.6,0.1,1.2,0.4,1.9c0.2,0.7,0.8,1,1.6,1c0.2,0,0.4,0,0.6-0.2c0.2-0.1,0.3-0.2,0.5-0.3l0.6,1.7C209.5,82.4,208.7,82.8,207.9,83.2
	z M188.9,77.7c0.6,1,1.6,1.5,3,1.5c1.1,0,2-0.3,2.8-0.9c0.7-0.6,1.3-1.3,1.8-2.2c0.5-0.9,0.8-1.9,1.1-2.9c0.2-1.1,0.5-2.1,0.7-3
	l1.1-5.6c-2.2,0.3-3.9,0.7-5,1c-1.2,0.3-2.2,0.7-3,1.2c-1.2,0.7-2,1.8-2.5,3.3s-0.7,2.9-0.7,4.2C188,75.6,188.3,76.7,188.9,77.7z"/>
<path fill="#184E92" d="M251.4,56.9c-0.1,0.6-0.2,1.4-0.3,2.2c-0.2,0.9-0.4,1.9-0.7,3.2c-0.3,1.3-0.7,2.9-1.2,4.9
	c-0.4,1.8-0.8,3.4-1.1,4.8c-0.3,1.4-0.6,2.7-0.8,3.9c-0.2,1.2-0.5,2.4-0.7,3.5s-0.4,2.3-0.7,3.6c-0.8-0.1-1.6-0.1-2.5-0.1
	c-0.8,0-1.8,0-2.9,0c-1,0-2,0-2.9,0s-1.8,0-2.6,0.1c0.2-0.4,0.5-1.3,0.9-2.7c0.4-1.3,0.9-2.9,1.4-4.6c0.5-1.7,1-3.6,1.5-5.5
	s1-3.8,1.4-5.5c0.4-1.8,0.8-3.3,1.1-4.7c0.3-1.4,0.4-2.4,0.4-3c0-1.4-0.4-2.4-1.1-3.1c-0.8-0.7-1.8-1-3.1-1c-1.8,0-3.5,0.8-5.2,2.3
	c-1.7,1.5-3.1,3.9-4.1,7.1c-0.4,1.2-0.8,2.6-1.2,4.3c-0.4,1.7-0.9,3.4-1.3,5.3c-0.4,1.9-0.8,3.8-1.2,5.8c-0.4,2-0.7,3.8-0.9,5.4
	c-0.8-0.1-1.7-0.1-2.5-0.1c-0.9,0-1.7,0-2.5,0c-0.9,0-1.8,0-2.7,0c-0.9,0-1.8,0-2.6,0.1c0.6-2.2,1.3-4.6,1.9-7.1
	c0.6-2.5,1.3-5.1,1.9-7.9c0.6-2.8,1.3-5.8,1.9-9.1c0.7-3.3,1.4-6.9,2.1-10.8c0.7,0.1,1.6,0.2,2.5,0.3c1,0.1,1.9,0.1,2.7,0.1
	c0.8,0,1.6,0,2.4-0.1c0.8-0.1,1.5-0.2,2.2-0.3c-0.2,0.6-0.4,1.2-0.5,1.6c-0.1,0.5-0.3,0.9-0.4,1.3c-0.1,0.4-0.2,0.9-0.3,1.4
	s-0.3,1.1-0.4,1.8c1.7-2.2,3.6-3.9,5.7-5.1c2-1.2,4.5-1.8,7.4-1.8c3.1,0,5.3,0.7,6.8,2.2c1.4,1.5,2.1,3.3,2.1,5.5
	C251.5,55.7,251.5,56.3,251.4,56.9z"/>
<path fill="#184E92" d="M284.9,83.2c-0.8,0.3-2,0.5-3.6,0.5c-1.3,0-2.4-0.2-3.2-0.6c-0.9-0.4-1.5-0.8-2-1.4
	c-0.5-0.6-0.8-1.1-1.1-1.8c-0.2-0.6-0.4-1.1-0.5-1.5c-1.2,2-2.5,3.5-4,4.3c-1.5,0.8-3.5,1.2-5.9,1.2c-2.9,0-5.2-0.8-7-2.5
	c-1.7-1.7-2.6-3.9-2.6-6.9c0-2.3,0.7-4.5,2-6.5c1.3-2,3.3-3.4,5.8-4.2c1.1-0.3,2.5-0.6,4.2-0.9c1.7-0.2,3.2-0.5,4.7-0.7
	c1.1-0.1,2-0.3,2.7-0.4c0.7-0.1,1.3-0.3,1.7-0.6c0.4-0.3,0.7-0.7,0.9-1.3c0.2-0.6,0.3-1.4,0.3-2.4c0-1.1-0.2-2-0.6-2.7
	c-0.4-0.7-0.9-1.3-1.5-1.7c-0.6-0.4-1.3-0.7-2-0.9c-0.8-0.2-1.5-0.3-2.2-0.3c-1.5,0-2.9,0.2-4.1,0.7c-1.2,0.5-2.4,1.2-3.6,2h-0.4
	c0.1-1,0.2-1.7,0.2-2.2c0.1-0.5,0.1-1.2,0.2-1.9c4-2.2,8.3-3.4,12.8-3.4c1.4,0,2.8,0.1,4.1,0.4c1.3,0.3,2.5,0.8,3.6,1.5
	c1.1,0.7,1.9,1.6,2.6,2.7c0.7,1.1,1,2.6,1,4.3c0,1.1-0.1,2.2-0.3,3.5s-0.4,2.3-0.6,3.1l-2,9.1c-0.4,1.7-0.6,3-0.7,3.8
	c-0.1,0.8-0.2,1.5-0.2,1.9c0,0.6,0.1,1.2,0.4,1.9c0.2,0.7,0.8,1,1.6,1c0.2,0,0.4,0,0.6-0.2c0.2-0.1,0.3-0.2,0.6-0.3l0.6,1.7
	C286.5,82.4,285.7,82.8,284.9,83.2z M265.9,77.7c0.6,1,1.6,1.5,3,1.5c1.1,0,2-0.3,2.8-0.9c0.7-0.6,1.3-1.3,1.8-2.2
	c0.5-0.9,0.8-1.9,1.1-2.9c0.2-1.1,0.5-2.1,0.7-3l1.1-5.6c-2.2,0.3-3.9,0.7-5,1c-1.2,0.3-2.2,0.7-3,1.2c-1.2,0.7-2,1.8-2.5,3.3
	c-0.5,1.5-0.7,2.9-0.7,4.2C265.1,75.6,265.3,76.7,265.9,77.7z"/>
</svg>
